<svg xmlns="http://www.w3.org/2000/svg" xmlns:xlink="http://www.w3.org/1999/xlink" width="464" zoomAndPan="magnify" viewBox="0 0 348 359.999987" height="480" preserveAspectRatio="xMidYMid meet" version="1.0"><defs><g/><clipPath id="031cd74b5b"><path d="M 153.28125 106.390625 L 261.804688 106.390625 L 261.804688 258.640625 L 153.28125 258.640625 Z M 153.28125 106.390625 " clip-rule="nonzero"/></clipPath><clipPath id="029855b4ac"><path d="M 224.265625 106.703125 L 261.804688 106.703125 L 261.804688 258.640625 L 224.265625 258.640625 Z M 224.265625 106.703125 " clip-rule="nonzero"/></clipPath><clipPath id="b67f4c2297"><path d="M 193.546875 106.703125 L 261.804688 106.703125 L 261.804688 258.640625 L 193.546875 258.640625 Z M 193.546875 106.703125 " clip-rule="nonzero"/></clipPath><clipPath id="da364ec8fa"><path d="M 162.824219 106.703125 L 261.804688 106.703125 L 261.804688 258.640625 L 162.824219 258.640625 Z M 162.824219 106.703125 " clip-rule="nonzero"/></clipPath><clipPath id="8892eb6e4e"><path d="M 153.28125 106.703125 L 232.085938 106.703125 L 232.085938 258.640625 L 153.28125 258.640625 Z M 153.28125 106.703125 " clip-rule="nonzero"/></clipPath><clipPath id="fbc3b004d4"><path d="M 153.28125 106.703125 L 201.363281 106.703125 L 201.363281 258.640625 L 153.28125 258.640625 Z M 153.28125 106.703125 " clip-rule="nonzero"/></clipPath><clipPath id="db9ba943c6"><path d="M 153.28125 106.703125 L 170.640625 106.703125 L 170.640625 258.640625 L 153.28125 258.640625 Z M 153.28125 106.703125 " clip-rule="nonzero"/></clipPath><clipPath id="c0999af3d8"><path d="M 86.09375 52.851562 L 192.992188 52.851562 L 192.992188 202.140625 L 86.09375 202.140625 Z M 86.09375 52.851562 " clip-rule="nonzero"/></clipPath><clipPath id="7e71555ec6"><path d="M 215 52 L 232.964844 52 L 232.964844 79 L 215 79 Z M 215 52 " clip-rule="nonzero"/></clipPath><clipPath id="321b348154"><path d="M 244.167969 52 L 261 52 L 261 79 L 244.167969 79 Z M 244.167969 52 " clip-rule="nonzero"/></clipPath></defs><rect x="-34.8" width="417.6" fill="#ffffff" y="-35.999999" height="431.999984" fill-opacity="1"/><rect x="-34.8" width="417.6" fill="#000000" y="-35.999999" height="431.999984" fill-opacity="1"/><g clip-path="url(#031cd74b5b)"><path fill="#472fdb" d="M 262.035156 269.949219 L 145.695312 269.949219 L 145.695312 106.703125 L 262.035156 106.703125 L 262.035156 269.953125 " fill-opacity="1" fill-rule="nonzero"/></g><g clip-path="url(#029855b4ac)"><path fill="#0f0e0c" d="M 231.417969 277.136719 L 224.34375 270.058594 L 310.097656 184.304688 L 225.027344 99.234375 L 232.101562 92.15625 L 324.25 184.304688 L 231.417969 277.136719 " fill-opacity="1" fill-rule="nonzero"/></g><g clip-path="url(#b67f4c2297)"><path fill="#0f0e0c" d="M 200.695312 277.136719 L 193.621094 270.058594 L 279.375 184.304688 L 194.304688 99.234375 L 201.378906 92.15625 L 293.527344 184.304688 L 200.695312 277.136719 " fill-opacity="1" fill-rule="nonzero"/></g><g clip-path="url(#da364ec8fa)"><path fill="#0f0e0c" d="M 169.972656 277.136719 L 162.898438 270.058594 L 248.652344 184.304688 L 163.582031 99.234375 L 170.65625 92.15625 L 262.804688 184.304688 L 169.972656 277.136719 " fill-opacity="1" fill-rule="nonzero"/></g><g clip-path="url(#8892eb6e4e)"><path fill="#0f0e0c" d="M 139.25 277.136719 L 132.175781 270.058594 L 217.929688 184.304688 L 132.859375 99.234375 L 139.933594 92.15625 L 232.082031 184.304688 L 139.25 277.136719 " fill-opacity="1" fill-rule="nonzero"/></g><g clip-path="url(#fbc3b004d4)"><path fill="#0f0e0c" d="M 108.527344 277.136719 L 101.453125 270.058594 L 187.207031 184.304688 L 102.136719 99.234375 L 109.210938 92.15625 L 201.359375 184.304688 L 108.527344 277.136719 " fill-opacity="1" fill-rule="nonzero"/></g><g clip-path="url(#db9ba943c6)"><path fill="#0f0e0c" d="M 77.804688 277.136719 L 70.730469 270.058594 L 156.484375 184.304688 L 71.414062 99.234375 L 78.492188 92.15625 L 170.636719 184.304688 L 77.804688 277.136719 " fill-opacity="1" fill-rule="nonzero"/></g><g clip-path="url(#c0999af3d8)"><path fill="#472fdb" d="M 86.09375 52.851562 L 192.992188 52.851562 L 192.992188 202.339844 L 86.09375 202.339844 Z M 86.09375 52.851562 " fill-opacity="1" fill-rule="nonzero"/></g><g clip-path="url(#7e71555ec6)"><path fill="#ffffff" d="M 229.238281 78.816406 L 215.867188 65.726562 L 229.332031 52.550781 L 232.066406 55.230469 L 221.34375 65.726562 L 231.976562 76.136719 L 229.238281 78.816406 " fill-opacity="1" fill-rule="nonzero"/></g><g clip-path="url(#321b348154)"><path fill="#ffffff" d="M 247.625 78.816406 L 260.996094 65.726562 L 247.53125 52.550781 L 244.792969 55.230469 L 255.519531 65.726562 L 244.886719 76.136719 L 247.625 78.816406 " fill-opacity="1" fill-rule="nonzero"/></g><g fill="#ffffff" fill-opacity="1"><g transform="translate(92.289587, 151.180078)"><g><path d="M 31.5625 0 L 15.5 0 C 11.25 0 8.09375 -0.847656 6.03125 -2.546875 C 3.976562 -4.242188 2.953125 -6.863281 2.953125 -10.40625 L 2.953125 -26.3125 C 2.953125 -29.851562 3.976562 -32.472656 6.03125 -34.171875 C 8.09375 -35.867188 11.25 -36.71875 15.5 -36.71875 L 28.25 -36.71875 C 28.894531 -36.71875 29.363281 -36.570312 29.65625 -36.28125 C 29.945312 -36 30.09375 -35.535156 30.09375 -34.890625 L 30.09375 -28.71875 C 30.09375 -28.070312 29.945312 -27.601562 29.65625 -27.3125 C 29.363281 -27.019531 28.894531 -26.875 28.25 -26.875 L 17.640625 -26.875 C 16.585938 -26.875 15.804688 -26.660156 15.296875 -26.234375 C 14.785156 -25.816406 14.53125 -25.179688 14.53125 -24.328125 L 14.53125 -12.140625 C 14.53125 -11.285156 14.722656 -10.65625 15.109375 -10.25 C 15.503906 -9.84375 16.09375 -9.640625 16.875 -9.640625 L 21.828125 -9.640625 L 21.828125 -17.59375 C 21.828125 -18.238281 21.96875 -18.707031 22.25 -19 C 22.539062 -19.289062 23.007812 -19.4375 23.65625 -19.4375 L 31.5625 -19.4375 C 32.207031 -19.4375 32.675781 -19.289062 32.96875 -19 C 33.257812 -18.707031 33.40625 -18.238281 33.40625 -17.59375 L 33.40625 -1.84375 C 33.40625 -1.1875 33.257812 -0.710938 32.96875 -0.421875 C 32.675781 -0.140625 32.207031 0 31.5625 0 Z M 31.5625 0 "/></g></g></g><g fill="#ffffff" fill-opacity="1"><g transform="translate(125.845207, 151.180078)"><g><path d="M 34.78125 -9.640625 C 34.78125 -8.078125 34.550781 -6.65625 34.09375 -5.375 C 33.632812 -4.101562 32.816406 -3.015625 31.640625 -2.109375 C 30.472656 -1.210938 28.867188 -0.507812 26.828125 0 C 24.785156 0.507812 22.179688 0.765625 19.015625 0.765625 C 15.859375 0.765625 13.257812 0.507812 11.21875 0 C 9.175781 -0.507812 7.566406 -1.210938 6.390625 -2.109375 C 5.222656 -3.015625 4.410156 -4.101562 3.953125 -5.375 C 3.492188 -6.65625 3.265625 -8.078125 3.265625 -9.640625 L 3.265625 -34.890625 C 3.265625 -35.535156 3.40625 -36 3.6875 -36.28125 C 3.976562 -36.570312 4.445312 -36.71875 5.09375 -36.71875 L 13.109375 -36.71875 C 13.753906 -36.71875 14.21875 -36.570312 14.5 -36.28125 C 14.789062 -36 14.9375 -35.535156 14.9375 -34.890625 L 14.9375 -11.625 C 14.9375 -10.945312 15.191406 -10.378906 15.703125 -9.921875 C 16.210938 -9.460938 17.351562 -9.234375 19.125 -9.234375 C 20.925781 -9.234375 22.082031 -9.460938 22.59375 -9.921875 C 23.101562 -10.378906 23.359375 -10.945312 23.359375 -11.625 L 23.359375 -34.890625 C 23.359375 -35.535156 23.5 -36 23.78125 -36.28125 C 24.070312 -36.570312 24.539062 -36.71875 25.1875 -36.71875 L 32.953125 -36.71875 C 33.597656 -36.71875 34.0625 -36.570312 34.34375 -36.28125 C 34.632812 -36 34.78125 -35.535156 34.78125 -34.890625 Z M 34.78125 -9.640625 "/></g></g></g><g fill="#ffffff" fill-opacity="1"><g transform="translate(161.338689, 151.180078)"><g><path d="M 22.140625 0 L 13.875 0 C 13.226562 0 12.757812 -0.140625 12.46875 -0.421875 C 12.175781 -0.710938 12.03125 -1.1875 12.03125 -1.84375 L 12.03125 -8.359375 L 4.234375 -18.8125 C 3.453125 -19.875 2.929688 -20.796875 2.671875 -21.578125 C 2.421875 -22.359375 2.296875 -23.53125 2.296875 -25.09375 L 2.296875 -34.890625 C 2.296875 -35.535156 2.4375 -36 2.71875 -36.28125 C 3.007812 -36.570312 3.476562 -36.71875 4.125 -36.71875 L 11.984375 -36.71875 C 12.628906 -36.71875 13.097656 -36.570312 13.390625 -36.28125 C 13.679688 -36 13.828125 -35.535156 13.828125 -34.890625 L 13.828125 -26.515625 C 13.828125 -26.179688 13.84375 -25.828125 13.875 -25.453125 C 13.90625 -25.078125 14.039062 -24.71875 14.28125 -24.375 L 16.625 -20.703125 C 16.789062 -20.398438 16.96875 -20.179688 17.15625 -20.046875 C 17.34375 -19.910156 17.570312 -19.84375 17.84375 -19.84375 L 18.359375 -19.84375 C 18.628906 -19.84375 18.859375 -19.910156 19.046875 -20.046875 C 19.234375 -20.179688 19.410156 -20.398438 19.578125 -20.703125 L 21.9375 -24.375 C 22.164062 -24.71875 22.296875 -25.078125 22.328125 -25.453125 C 22.367188 -25.828125 22.390625 -26.179688 22.390625 -26.515625 L 22.390625 -34.890625 C 22.390625 -35.535156 22.53125 -36 22.8125 -36.28125 C 23.101562 -36.570312 23.570312 -36.71875 24.21875 -36.71875 L 31.828125 -36.71875 C 32.472656 -36.71875 32.9375 -36.570312 33.21875 -36.28125 C 33.507812 -36 33.65625 -35.535156 33.65625 -34.890625 L 33.65625 -25.09375 C 33.65625 -23.53125 33.519531 -22.359375 33.25 -21.578125 C 32.976562 -20.796875 32.46875 -19.875 31.71875 -18.8125 L 23.96875 -8.3125 L 23.96875 -1.84375 C 23.96875 -1.1875 23.820312 -0.710938 23.53125 -0.421875 C 23.25 -0.140625 22.785156 0 22.140625 0 Z M 22.140625 0 "/></g></g></g><g fill="#ffffff" fill-opacity="1"><g transform="translate(194.741321, 151.180078)"><g><path d="M 20.546875 0 L 4.4375 0 C 3.789062 0 3.320312 -0.140625 3.03125 -0.421875 C 2.738281 -0.710938 2.59375 -1.1875 2.59375 -1.84375 L 2.59375 -7.796875 C 2.59375 -8.441406 2.738281 -8.910156 3.03125 -9.203125 C 3.320312 -9.492188 3.789062 -9.640625 4.4375 -9.640625 L 18.15625 -9.640625 C 18.59375 -9.640625 18.921875 -9.78125 19.140625 -10.0625 C 19.367188 -10.351562 19.484375 -10.707031 19.484375 -11.125 C 19.484375 -11.695312 19.367188 -12.117188 19.140625 -12.390625 C 18.921875 -12.660156 18.59375 -12.816406 18.15625 -12.859375 L 10.5 -13.921875 C 8.125 -14.265625 6.210938 -15.046875 4.765625 -16.265625 C 3.316406 -17.492188 2.59375 -19.535156 2.59375 -22.390625 L 2.59375 -27.75 C 2.59375 -30.632812 3.53125 -32.847656 5.40625 -34.390625 C 7.28125 -35.941406 9.863281 -36.71875 13.15625 -36.71875 L 27.4375 -36.71875 C 28.082031 -36.71875 28.550781 -36.570312 28.84375 -36.28125 C 29.132812 -36 29.28125 -35.535156 29.28125 -34.890625 L 29.28125 -28.8125 C 29.28125 -28.164062 29.132812 -27.695312 28.84375 -27.40625 C 28.550781 -27.125 28.082031 -26.984375 27.4375 -26.984375 L 15.5625 -26.984375 C 15.113281 -26.984375 14.769531 -26.835938 14.53125 -26.546875 C 14.289062 -26.253906 14.171875 -25.890625 14.171875 -25.453125 C 14.171875 -25.003906 14.289062 -24.628906 14.53125 -24.328125 C 14.769531 -24.023438 15.113281 -23.851562 15.5625 -23.8125 L 23.15625 -22.796875 C 25.53125 -22.453125 27.445312 -21.664062 28.90625 -20.4375 C 30.375 -19.21875 31.109375 -17.179688 31.109375 -14.328125 L 31.109375 -8.96875 C 31.109375 -6.082031 30.164062 -3.863281 28.28125 -2.3125 C 26.394531 -0.769531 23.816406 0 20.546875 0 Z M 20.546875 0 "/></g></g></g><g fill="#ffffff" fill-opacity="1"><g transform="translate(92.289587, 197.07691)"><g><path d="M 29.890625 -36.71875 L 37.484375 -36.71875 C 38.128906 -36.71875 38.597656 -36.570312 38.890625 -36.28125 C 39.179688 -36 39.328125 -35.535156 39.328125 -34.890625 L 39.328125 -15.09375 C 39.328125 -14.007812 39.28125 -13 39.1875 -12.0625 C 39.101562 -11.125 38.84375 -10.023438 38.40625 -8.765625 L 35.859375 -1.84375 C 35.679688 -1.332031 35.429688 -0.894531 35.109375 -0.53125 C 34.785156 -0.175781 34.351562 0 33.8125 0 L 27.03125 0 C 26.488281 0 25.992188 -0.117188 25.546875 -0.359375 C 25.109375 -0.597656 24.820312 -0.988281 24.6875 -1.53125 L 22.34375 -9.84375 C 22.238281 -10.1875 22.109375 -10.414062 21.953125 -10.53125 C 21.796875 -10.644531 21.617188 -10.703125 21.421875 -10.703125 L 20.96875 -10.703125 C 20.757812 -10.703125 20.578125 -10.644531 20.421875 -10.53125 C 20.273438 -10.414062 20.148438 -10.1875 20.046875 -9.84375 L 17.640625 -1.53125 C 17.503906 -1.019531 17.25 -0.632812 16.875 -0.375 C 16.5 -0.125 16.039062 0 15.5 0 L 8.765625 0 C 8.222656 0 7.753906 -0.164062 7.359375 -0.5 C 6.972656 -0.84375 6.695312 -1.289062 6.53125 -1.84375 L 3.984375 -8.875 C 3.535156 -10.132812 3.269531 -11.226562 3.1875 -12.15625 C 3.101562 -13.09375 3.0625 -14.109375 3.0625 -15.203125 L 3.0625 -34.890625 C 3.0625 -35.535156 3.203125 -36 3.484375 -36.28125 C 3.773438 -36.570312 4.242188 -36.71875 4.890625 -36.71875 L 12.75 -36.71875 C 13.394531 -36.71875 13.863281 -36.570312 14.15625 -36.28125 C 14.445312 -36 14.59375 -35.535156 14.59375 -34.890625 L 14.59375 -16.109375 L 17.546875 -22.546875 C 17.816406 -23.117188 18.171875 -23.523438 18.609375 -23.765625 C 19.054688 -24.003906 19.601562 -24.125 20.25 -24.125 L 22.390625 -24.125 C 23.035156 -24.125 23.578125 -24.003906 24.015625 -23.765625 C 24.460938 -23.523438 24.820312 -23.117188 25.09375 -22.546875 L 28.046875 -16.109375 L 28.046875 -34.890625 C 28.046875 -35.535156 28.191406 -36 28.484375 -36.28125 C 28.773438 -36.570312 29.242188 -36.71875 29.890625 -36.71875 Z M 29.890625 -36.71875 "/></g></g></g><g fill="#ffffff" fill-opacity="1"><g transform="translate(132.117768, 197.07691)"><g><path d="M 13.265625 0 L 5.359375 0 C 4.710938 0 4.242188 -0.140625 3.953125 -0.421875 C 3.660156 -0.710938 3.515625 -1.1875 3.515625 -1.84375 L 3.515625 -34.890625 C 3.515625 -35.535156 3.660156 -36 3.953125 -36.28125 C 4.242188 -36.570312 4.710938 -36.71875 5.359375 -36.71875 L 13.265625 -36.71875 C 13.910156 -36.71875 14.375 -36.570312 14.65625 -36.28125 C 14.945312 -36 15.09375 -35.535156 15.09375 -34.890625 L 15.09375 -23.8125 L 23.609375 -23.8125 L 23.609375 -34.890625 C 23.609375 -35.535156 23.753906 -36 24.046875 -36.28125 C 24.335938 -36.570312 24.804688 -36.71875 25.453125 -36.71875 L 33.359375 -36.71875 C 34.003906 -36.71875 34.46875 -36.570312 34.75 -36.28125 C 35.039062 -36 35.1875 -35.535156 35.1875 -34.890625 L 35.1875 -1.84375 C 35.1875 -1.1875 35.039062 -0.710938 34.75 -0.421875 C 34.46875 -0.140625 34.003906 0 33.359375 0 L 25.453125 0 C 24.804688 0 24.335938 -0.140625 24.046875 -0.421875 C 23.753906 -0.710938 23.609375 -1.1875 23.609375 -1.84375 L 23.609375 -13.15625 L 15.09375 -13.15625 L 15.09375 -1.84375 C 15.09375 -1.1875 14.945312 -0.710938 14.65625 -0.421875 C 14.375 -0.140625 13.910156 0 13.265625 0 Z M 13.265625 0 "/></g></g></g><g fill="#ffffff" fill-opacity="1"><g transform="translate(168.274205, 197.07691)"><g><path d="M 34.625 -9.640625 C 34.625 -8.078125 34.394531 -6.65625 33.9375 -5.375 C 33.476562 -4.101562 32.660156 -3.015625 31.484375 -2.109375 C 30.316406 -1.210938 28.703125 -0.507812 26.640625 0 C 24.585938 0.507812 21.976562 0.765625 18.8125 0.765625 C 15.65625 0.765625 13.039062 0.507812 10.96875 0 C 8.894531 -0.507812 7.269531 -1.210938 6.09375 -2.109375 C 4.914062 -3.015625 4.097656 -4.101562 3.640625 -5.375 C 3.179688 -6.65625 2.953125 -8.078125 2.953125 -9.640625 L 2.953125 -27.03125 C 2.953125 -28.59375 3.179688 -30.007812 3.640625 -31.28125 C 4.097656 -32.5625 4.914062 -33.660156 6.09375 -34.578125 C 7.269531 -35.492188 8.894531 -36.207031 10.96875 -36.71875 C 13.039062 -37.226562 15.65625 -37.484375 18.8125 -37.484375 C 21.976562 -37.484375 24.585938 -37.226562 26.640625 -36.71875 C 28.703125 -36.207031 30.316406 -35.492188 31.484375 -34.578125 C 32.660156 -33.660156 33.476562 -32.5625 33.9375 -31.28125 C 34.394531 -30.007812 34.625 -28.59375 34.625 -27.03125 Z M 14.53125 -11.46875 C 14.53125 -10.789062 14.785156 -10.222656 15.296875 -9.765625 C 15.804688 -9.304688 16.976562 -9.078125 18.8125 -9.078125 C 20.65625 -9.078125 21.832031 -9.304688 22.34375 -9.765625 C 22.851562 -10.222656 23.109375 -10.789062 23.109375 -11.46875 L 23.109375 -25.1875 C 23.109375 -25.832031 22.851562 -26.382812 22.34375 -26.84375 C 21.832031 -27.3125 20.65625 -27.546875 18.8125 -27.546875 C 16.976562 -27.546875 15.804688 -27.3125 15.296875 -26.84375 C 14.785156 -26.382812 14.53125 -25.832031 14.53125 -25.1875 Z M 14.53125 -11.46875 "/></g></g></g><g fill="#ffffff" fill-opacity="1"><g transform="translate(92.289587, 242.973742)"><g><path d="M 27.953125 0 L 15.5 0 C 11.25 0 8.09375 -0.847656 6.03125 -2.546875 C 3.976562 -4.242188 2.953125 -6.863281 2.953125 -10.40625 L 2.953125 -26.265625 C 2.953125 -29.796875 3.976562 -32.421875 6.03125 -34.140625 C 8.09375 -35.859375 11.25 -36.71875 15.5 -36.71875 L 27.953125 -36.71875 C 28.597656 -36.71875 29.0625 -36.570312 29.34375 -36.28125 C 29.632812 -36 29.78125 -35.535156 29.78125 -34.890625 L 29.78125 -28.71875 C 29.78125 -28.070312 29.632812 -27.601562 29.34375 -27.3125 C 29.0625 -27.019531 28.597656 -26.875 27.953125 -26.875 L 17.703125 -26.875 C 16.640625 -26.875 15.851562 -26.660156 15.34375 -26.234375 C 14.84375 -25.816406 14.59375 -25.179688 14.59375 -24.328125 L 14.59375 -12.1875 C 14.59375 -11.332031 14.84375 -10.707031 15.34375 -10.3125 C 15.851562 -9.925781 16.640625 -9.734375 17.703125 -9.734375 L 27.953125 -9.734375 C 28.597656 -9.734375 29.0625 -9.585938 29.34375 -9.296875 C 29.632812 -9.015625 29.78125 -8.550781 29.78125 -7.90625 L 29.78125 -1.84375 C 29.78125 -1.1875 29.632812 -0.710938 29.34375 -0.421875 C 29.0625 -0.140625 28.597656 0 27.953125 0 Z M 27.953125 0 "/></g></g></g><g fill="#ffffff" fill-opacity="1"><g transform="translate(121.765494, 242.973742)"><g><path d="M 34.625 -9.640625 C 34.625 -8.078125 34.394531 -6.65625 33.9375 -5.375 C 33.476562 -4.101562 32.660156 -3.015625 31.484375 -2.109375 C 30.316406 -1.210938 28.703125 -0.507812 26.640625 0 C 24.585938 0.507812 21.976562 0.765625 18.8125 0.765625 C 15.65625 0.765625 13.039062 0.507812 10.96875 0 C 8.894531 -0.507812 7.269531 -1.210938 6.09375 -2.109375 C 4.914062 -3.015625 4.097656 -4.101562 3.640625 -5.375 C 3.179688 -6.65625 2.953125 -8.078125 2.953125 -9.640625 L 2.953125 -27.03125 C 2.953125 -28.59375 3.179688 -30.007812 3.640625 -31.28125 C 4.097656 -32.5625 4.914062 -33.660156 6.09375 -34.578125 C 7.269531 -35.492188 8.894531 -36.207031 10.96875 -36.71875 C 13.039062 -37.226562 15.65625 -37.484375 18.8125 -37.484375 C 21.976562 -37.484375 24.585938 -37.226562 26.640625 -36.71875 C 28.703125 -36.207031 30.316406 -35.492188 31.484375 -34.578125 C 32.660156 -33.660156 33.476562 -32.5625 33.9375 -31.28125 C 34.394531 -30.007812 34.625 -28.59375 34.625 -27.03125 Z M 14.53125 -11.46875 C 14.53125 -10.789062 14.785156 -10.222656 15.296875 -9.765625 C 15.804688 -9.304688 16.976562 -9.078125 18.8125 -9.078125 C 20.65625 -9.078125 21.832031 -9.304688 22.34375 -9.765625 C 22.851562 -10.222656 23.109375 -10.789062 23.109375 -11.46875 L 23.109375 -25.1875 C 23.109375 -25.832031 22.851562 -26.382812 22.34375 -26.84375 C 21.832031 -27.3125 20.65625 -27.546875 18.8125 -27.546875 C 16.976562 -27.546875 15.804688 -27.3125 15.296875 -26.84375 C 14.785156 -26.382812 14.53125 -25.832031 14.53125 -25.1875 Z M 14.53125 -11.46875 "/></g></g></g><g fill="#ffffff" fill-opacity="1"><g transform="translate(156.800017, 242.973742)"><g><path d="M 22.546875 0 L 5.359375 0 C 4.710938 0 4.242188 -0.140625 3.953125 -0.421875 C 3.660156 -0.710938 3.515625 -1.1875 3.515625 -1.84375 L 3.515625 -34.890625 C 3.515625 -35.535156 3.660156 -36 3.953125 -36.28125 C 4.242188 -36.570312 4.710938 -36.71875 5.359375 -36.71875 L 22.546875 -36.71875 C 26.796875 -36.71875 29.945312 -35.867188 32 -34.171875 C 34.0625 -32.472656 35.09375 -29.851562 35.09375 -26.3125 L 35.09375 -10.40625 C 35.09375 -6.863281 34.0625 -4.242188 32 -2.546875 C 29.945312 -0.847656 26.796875 0 22.546875 0 Z M 15.09375 -26.984375 L 15.09375 -9.640625 L 21.171875 -9.640625 C 21.984375 -9.640625 22.582031 -9.84375 22.96875 -10.25 C 23.363281 -10.65625 23.5625 -11.285156 23.5625 -12.140625 L 23.5625 -24.53125 C 23.5625 -25.382812 23.363281 -26.003906 22.96875 -26.390625 C 22.582031 -26.785156 21.984375 -26.984375 21.171875 -26.984375 Z M 15.09375 -26.984375 "/></g></g></g><g fill="#ffffff" fill-opacity="1"><g transform="translate(192.293493, 242.973742)"><g><path d="M 29.015625 0 L 5.359375 0 C 4.710938 0 4.242188 -0.140625 3.953125 -0.421875 C 3.660156 -0.710938 3.515625 -1.1875 3.515625 -1.84375 L 3.515625 -34.890625 C 3.515625 -35.535156 3.660156 -36 3.953125 -36.28125 C 4.242188 -36.570312 4.710938 -36.71875 5.359375 -36.71875 L 29.015625 -36.71875 C 29.660156 -36.71875 30.128906 -36.570312 30.421875 -36.28125 C 30.710938 -36 30.859375 -35.535156 30.859375 -34.890625 L 30.859375 -28.921875 C 30.859375 -28.273438 30.710938 -27.804688 30.421875 -27.515625 C 30.128906 -27.222656 29.660156 -27.078125 29.015625 -27.078125 L 14.9375 -27.078125 L 14.9375 -23.15625 L 24.890625 -23.15625 C 25.535156 -23.15625 26 -23.007812 26.28125 -22.71875 C 26.570312 -22.425781 26.71875 -21.957031 26.71875 -21.3125 L 26.71875 -15.859375 C 26.71875 -15.210938 26.570312 -14.742188 26.28125 -14.453125 C 26 -14.171875 25.535156 -14.03125 24.890625 -14.03125 L 14.9375 -14.03125 L 14.9375 -9.640625 L 29.015625 -9.640625 C 29.660156 -9.640625 30.128906 -9.492188 30.421875 -9.203125 C 30.710938 -8.910156 30.859375 -8.441406 30.859375 -7.796875 L 30.859375 -1.84375 C 30.859375 -1.1875 30.710938 -0.710938 30.421875 -0.421875 C 30.128906 -0.140625 29.660156 0 29.015625 0 Z M 29.015625 0 "/></g></g></g></svg>